# xmcd
#
# Track frame offsets:
#	150
#	7907
#	19176
#	28123
#	40629
#	50636
#	59097
#	69799
#	81504
#	95269
#	106418
#	120747
#	130906
#	138635
#	145836
#	157492
#	166829
#	184102
#	190100
#	199268
#	208416
#	218823
#
# Disc length: 3132 seconds
#
# Revision: 0
# Processed by: cddbd v1.5.2PL0 Copyright (c) Steve Scherf et al.
# Submitted via: dBpowerAMP V4.0
#
DISCID=490c3a16
DTITLE=Carmen Butchart - Too Many Tunes And Not Enought Time
DYEAR=2005
DGENRE=Fiddle
TTITLE0=Glen MacDonalds Reel
TTITLE1=Molly's Waltz (Traditional)
TTITLE2=Farewell to Lexus
TTITLE3=40 Years Ago Waltz
TTITLE4=This Ones for Conner
TTITLE5=Another Durocher Tune (J Durocher)
TTITLE6=Whiskey Before Breakfast (Traditional)
TTITLE7=First Century Reel (R. Meeks)
TTITLE8=Gisele Waltz (Y. Cuillerier)
TTITLE9=Mother Thacker's Special (R. Montgomery)
TTITLE10=Lake Of The Woods Waltz
TTITLE11=Allouette Reel (Claude Huard)
TTITLE12=John Bryant's Hornpipe
TTITLE13=Necum Teuch Jig (G.Bailey)
TTITLE14=Ridin' The Rails (J. Durocher)
TTITLE15=One For Sami
TTITLE16=One For Christina
TTITLE17=Mac Campbell's Jig
TTITLE18=Carmen's Hornpipe
TTITLE19=Madeline's Reel
TTITLE20=Out The Buckhorn Way (Traditional)
TTITLE21=After The Rain (Ted Landry)
EXTD=
EXTT0=
EXTT1=
EXTT2=
EXTT3=
EXTT4=
EXTT5=
EXTT6=
EXTT7=
EXTT8=
EXTT9=
EXTT10=
EXTT11=
EXTT12=
EXTT13=
EXTT14=
EXTT15=
EXTT16=
EXTT17=
EXTT18=
EXTT19=
EXTT20=
EXTT21=
PLAYORDER=
